<?xml version="1.0" standalone="no"?>
<!DOCTYPE svg PUBLIC "-//W3C//DTD SVG 20010904//EN"
 "http://www.w3.org/TR/2001/REC-SVG-20010904/DTD/svg10.dtd">
<svg version="1.0" xmlns="http://www.w3.org/2000/svg"
 width="1920.000000pt" height="1920.000000pt" viewBox="0 0 1920.000000 1920.000000"
 preserveAspectRatio="xMidYMid meet">

<g transform="translate(0.000000,1920.000000) scale(0.100000,-0.100000)"
fill="#000000" stroke="none">
<path d="M17022 16489 c-13 -5 -27 -7 -32 -4 -4 3 -10 -4 -13 -15 -3 -11 -12
-20 -21 -20 -9 0 -16 -4 -16 -9 0 -5 -13 -11 -28 -14 -15 -3 -40 -17 -56 -32
-15 -14 -30 -24 -33 -21 -3 3 -17 -6 -32 -20 -14 -13 -52 -37 -83 -52 -32 -15
-58 -33 -58 -41 0 -7 -6 -11 -15 -7 -8 3 -15 1 -15 -4 0 -6 -6 -10 -13 -10 -7
0 -23 -10 -37 -23 -14 -12 -44 -31 -67 -42 -23 -11 -44 -28 -47 -38 -2 -9 -10
-15 -18 -12 -8 3 -28 -8 -46 -24 -18 -16 -45 -31 -60 -34 -15 -3 -40 -17 -55
-31 -16 -14 -31 -26 -34 -26 -3 0 -36 -20 -73 -45 -37 -25 -74 -45 -83 -45 -8
0 -17 -9 -20 -21 -3 -12 -10 -18 -16 -14 -6 3 -11 2 -11 -4 0 -6 -6 -8 -14 -5
-7 3 -16 -2 -19 -10 -4 -9 -13 -16 -22 -16 -8 0 -15 -4 -15 -9 0 -5 -10 -11
-22 -15 -13 -3 -37 -18 -55 -35 -17 -16 -34 -26 -37 -23 -4 3 -16 -4 -29 -15
-12 -11 -43 -30 -68 -41 -25 -12 -56 -32 -69 -44 -14 -13 -28 -22 -32 -21 -5
2 -8 -2 -8 -8 0 -5 -4 -8 -8 -5 -5 3 -23 -9 -40 -26 -18 -16 -32 -27 -32 -24
0 4 -13 -2 -29 -13 -16 -12 -34 -21 -40 -21 -6 0 -11 -7 -11 -16 0 -11 -6 -15
-20 -11 -11 3 -20 0 -20 -6 0 -6 -3 -8 -6 -5 -3 3 -17 -5 -32 -19 -15 -14 -41
-31 -59 -38 -17 -7 -40 -22 -50 -32 -11 -10 -26 -19 -33 -21 -8 -2 -30 -16
-49 -31 -20 -16 -54 -36 -76 -47 -22 -10 -44 -24 -48 -31 -5 -7 -12 -11 -18
-8 -5 4 -9 1 -9 -6 0 -7 -3 -9 -7 -6 -3 4 -12 -2 -20 -13 -8 -11 -21 -20 -29
-20 -8 0 -14 -3 -14 -7 0 -5 -20 -17 -45 -28 -24 -10 -47 -25 -50 -33 -3 -7
-9 -11 -15 -7 -5 3 -22 -5 -37 -20 -15 -14 -52 -37 -80 -52 -29 -14 -53 -30
-53 -35 0 -4 -15 -14 -32 -22 -18 -7 -43 -23 -55 -35 -12 -11 -27 -21 -32 -21
-23 0 -81 -36 -81 -51 0 -11 -9 -16 -24 -16 -13 0 -32 -9 -43 -20 -11 -11 -46
-32 -77 -47 -32 -15 -56 -33 -56 -42 0 -8 -5 -12 -11 -8 -6 3 -29 -7 -52 -24
-23 -16 -61 -39 -83 -50 -23 -12 -44 -28 -48 -37 -3 -9 -10 -13 -16 -10 -5 3
-10 1 -10 -5 0 -6 -4 -9 -9 -6 -5 3 -11 -1 -15 -9 -3 -8 -12 -15 -21 -15 -8 0
-15 -4 -15 -10 0 -5 -8 -10 -17 -10 -23 0 -83 -42 -83 -59 0 -8 -6 -11 -15 -7
-9 3 -35 -9 -61 -29 -25 -19 -51 -35 -58 -35 -6 0 -26 -13 -43 -29 -18 -16
-34 -26 -37 -23 -9 8 -76 -42 -76 -57 0 -7 -6 -11 -13 -8 -7 3 -24 -4 -38 -14
-13 -10 -30 -19 -36 -19 -7 0 -13 -7 -13 -16 0 -10 -6 -14 -15 -10 -8 3 -15 0
-15 -6 0 -6 -3 -9 -6 -6 -3 3 -19 -7 -36 -22 -16 -15 -42 -30 -57 -33 -15 -3
-39 -17 -53 -30 -15 -14 -29 -23 -31 -21 -2 2 -28 -14 -57 -36 -30 -22 -59
-40 -65 -40 -7 0 -24 -12 -38 -26 -14 -14 -31 -23 -37 -19 -5 3 -10 1 -10 -6
0 -7 -3 -10 -6 -7 -3 4 -18 -6 -32 -21 -15 -16 -39 -31 -53 -34 -14 -4 -38
-18 -53 -32 -15 -14 -31 -23 -36 -20 -5 3 -25 -11 -46 -31 -21 -19 -51 -38
-66 -41 -15 -3 -39 -16 -53 -29 -14 -13 -31 -24 -38 -24 -7 0 -25 -13 -42 -28
-16 -15 -38 -31 -47 -35 -10 -3 -18 -11 -18 -17 0 -5 -13 -10 -30 -10 -24 0
-30 -4 -30 -21 0 -15 -5 -19 -15 -15 -8 3 -15 0 -15 -6 0 -6 -3 -9 -6 -5 -4 3
-21 -4 -38 -17 -17 -13 -41 -27 -52 -30 -12 -4 -35 -19 -50 -33 -16 -15 -34
-28 -41 -29 -6 -1 -27 -13 -45 -27 -18 -14 -45 -28 -60 -32 -28 -7 -68 -40
-68 -55 0 -5 -7 -7 -15 -4 -8 4 -15 1 -15 -6 0 -6 -4 -9 -9 -6 -5 3 -11 -1
-15 -9 -3 -8 -12 -15 -21 -15 -8 0 -15 -4 -15 -9 0 -5 -10 -11 -22 -15 -13 -3
-37 -18 -53 -33 -17 -16 -38 -27 -46 -25 -8 1 -30 -11 -49 -28 -18 -16 -40
-30 -47 -30 -7 0 -13 -7 -13 -15 0 -8 -9 -15 -20 -15 -11 0 -28 -8 -38 -17
-10 -10 -23 -19 -28 -20 -6 -1 -33 -17 -61 -36 -29 -19 -65 -41 -82 -48 -20
-9 -29 -19 -26 -28 4 -9 -1 -12 -15 -8 -11 3 -20 0 -20 -6 0 -6 -3 -8 -6 -5
-3 3 -17 -5 -32 -19 -15 -14 -41 -31 -59 -38 -17 -7 -41 -23 -52 -34 -12 -12
-25 -19 -30 -17 -4 3 -32 -12 -61 -34 -30 -22 -59 -40 -65 -40 -6 0 -25 -13
-43 -30 -18 -16 -39 -30 -47 -30 -7 0 -15 -7 -19 -15 -3 -8 -12 -15 -21 -15
-8 0 -15 -4 -15 -9 0 -5 -13 -12 -29 -16 -16 -3 -40 -16 -54 -29 -13 -12 -28
-21 -33 -19 -6 2 -27 -13 -48 -32 -21 -19 -44 -35 -51 -35 -6 0 -31 -13 -53
-30 -23 -16 -48 -30 -55 -30 -8 0 -24 -11 -38 -26 -13 -14 -45 -35 -71 -47
-26 -12 -49 -29 -51 -39 -3 -10 -11 -16 -19 -13 -8 3 -29 -8 -48 -25 -18 -16
-40 -30 -48 -30 -23 0 -82 -40 -82 -56 0 -7 -6 -11 -14 -8 -13 5 -103 -55
-117 -78 -4 -6 -12 -7 -18 -4 -6 4 -22 -4 -35 -17 -14 -14 -27 -22 -30 -19 -3
3 -6 0 -6 -6 0 -7 -3 -11 -7 -10 -8 2 -55 -21 -63 -31 -3 -4 -18 -13 -34 -21
-59 -30 -66 -35 -66 -48 0 -7 -5 -10 -11 -6 -6 3 -14 2 -18 -3 -12 -17 -69
-53 -85 -53 -9 0 -16 -6 -16 -14 0 -7 -13 -16 -30 -19 -19 -4 -30 -13 -30 -23
0 -10 -5 -14 -15 -10 -9 3 -18 -1 -21 -9 -4 -8 -11 -15 -18 -15 -6 0 -35 -16
-63 -35 -29 -19 -57 -35 -63 -35 -5 0 -10 -7 -10 -16 0 -11 -6 -15 -20 -11
-11 3 -20 0 -20 -6 0 -6 -3 -8 -6 -4 -3 3 -19 -8 -35 -24 -15 -16 -33 -29 -39
-29 -5 0 -10 -4 -10 -10 0 -5 -9 -10 -20 -10 -11 0 -28 -8 -38 -18 -10 -10
-24 -16 -30 -14 -7 2 -12 -2 -12 -10 0 -13 -18 -24 -110 -69 -25 -12 -49 -28
-53 -36 -5 -7 -12 -11 -18 -8 -5 4 -9 1 -9 -6 0 -7 -3 -10 -6 -6 -3 3 -14 -2
-24 -11 -31 -28 -43 -36 -93 -60 -28 -14 -45 -28 -40 -34 4 -7 0 -9 -10 -5
-23 8 -47 -2 -47 -19 0 -8 -10 -18 -22 -23 -18 -6 0 -19 113 -78 74 -39 157
-82 186 -97 l52 -26 3113 1946 c1712 1070 3131 1958 3153 1975 22 16 56 40 75
53 19 13 51 45 70 70 19 25 42 45 51 46 9 0 38 25 64 55 25 30 53 55 60 55 8
0 35 24 60 54 26 30 69 68 96 86 27 17 49 37 49 44 0 17 43 56 62 56 16 0 72
57 103 104 10 14 25 26 35 26 18 0 100 82 100 100 0 5 8 10 18 10 11 0 45 27
76 60 32 33 60 60 64 60 13 1 89 74 107 103 9 15 22 27 27 27 15 0 67 46 101
88 16 20 33 36 38 35 5 -2 37 26 71 61 35 35 71 68 82 73 25 14 7 23 -22 12z"/>
<path d="M2613 12258 c2 -7 20 -13 40 -13 21 0 37 -3 37 -6 0 -4 21 -9 48 -12
148 -16 298 -43 308 -56 7 -9 20 -12 37 -7 18 4 27 2 27 -5 0 -8 13 -10 40 -6
21 3 40 2 42 -3 2 -4 122 -24 268 -44 191 -27 268 -42 277 -53 6 -8 24 -14 40
-12 15 1 36 -2 46 -6 9 -4 28 -4 42 -1 16 4 25 2 25 -5 0 -8 12 -10 35 -6 22
4 35 2 35 -5 0 -7 15 -9 40 -5 22 3 38 2 35 -2 -2 -5 82 -20 188 -35 l192 -26
1198 0 c729 0 1197 4 1197 9 0 5 -11 18 -25 29 -13 11 -22 22 -19 24 2 3 -2
11 -11 18 -8 7 -15 17 -15 22 0 6 -13 27 -30 48 -16 20 -27 40 -23 43 3 4 -6
12 -21 18 -15 7 -25 18 -22 26 3 7 2 13 -3 13 -5 0 -19 16 -32 35 l-24 35
-1988 0 c-1587 0 -1988 -3 -1984 -12z"/>
<path d="M7440 12242 c0 -11 9 -27 20 -37 11 -10 22 -26 25 -36 4 -11 13 -19
21 -19 8 0 12 -5 9 -11 -4 -6 1 -17 11 -24 11 -8 15 -15 10 -15 -5 0 3 -9 18
-21 14 -11 26 -26 26 -34 0 -7 13 -27 29 -44 15 -16 26 -32 24 -35 -2 -2 7
-13 21 -24 15 -11 26 -23 26 -27 0 -5 10 -22 23 -39 13 -17 26 -39 30 -49 4
-9 16 -21 28 -26 13 -4 18 -10 12 -14 -7 -4 2 -21 23 -44 19 -20 36 -45 40
-55 3 -10 12 -18 21 -18 9 0 13 -6 9 -15 -3 -9 8 -28 29 -48 19 -19 35 -39 35
-45 0 -6 6 -15 13 -19 7 -4 21 -25 30 -45 10 -20 26 -40 37 -43 11 -4 20 -13
20 -22 0 -22 69 -113 86 -113 8 0 11 -6 7 -16 -4 -11 1 -22 12 -30 10 -8 16
-14 12 -14 -3 0 5 -11 18 -25 14 -13 25 -29 25 -35 0 -5 7 -10 16 -10 10 0 14
-6 11 -14 -3 -8 9 -29 29 -48 18 -18 34 -41 34 -51 0 -10 7 -20 15 -23 8 -4
15 -10 15 -15 0 -17 43 -69 58 -69 9 0 11 -7 7 -19 -4 -14 0 -21 15 -26 11 -3
20 -12 20 -20 0 -7 15 -29 33 -48 18 -19 31 -39 30 -44 -2 -5 13 -26 32 -48
57 -64 60 -69 78 -108 10 -20 25 -40 33 -45 9 -5 15 -13 14 -18 -2 -5 7 -13
19 -19 11 -5 21 -17 21 -26 0 -9 13 -30 28 -47 15 -16 26 -35 24 -41 -2 -6 8
-15 23 -21 14 -5 24 -14 21 -18 -3 -5 9 -25 27 -44 18 -19 32 -39 33 -44 3
-28 18 -54 31 -54 7 0 22 -13 31 -30 9 -16 20 -30 25 -30 4 0 7 -9 7 -19 0
-10 14 -33 30 -51 17 -18 30 -36 30 -41 0 -4 9 -13 20 -19 11 -6 20 -16 20
-22 0 -6 10 -25 23 -42 13 -17 27 -39 30 -49 4 -11 16 -21 27 -24 11 -3 20
-10 20 -16 0 -5 11 -25 25 -43 14 -18 25 -39 25 -47 0 -17 44 -67 59 -67 6 0
8 -6 5 -14 -3 -8 3 -20 13 -27 10 -8 25 -27 33 -43 8 -16 25 -35 37 -43 13 -9
19 -21 16 -29 -3 -10 2 -17 14 -20 10 -3 23 -15 29 -27 17 -40 62 -26 124 41
30 33 62 62 71 65 9 3 33 26 53 50 l37 46 -778 1073 -778 1073 -70 35 c-39 19
-72 38 -73 43 -2 4 -8 5 -13 1 -5 -3 -9 0 -9 6 0 6 -4 8 -10 5 -5 -3 -10 -1
-10 5 0 7 -7 10 -15 7 -8 -4 -17 -2 -20 4 -4 5 -11 7 -16 4 -5 -4 -9 -1 -9 5
0 6 -4 8 -10 5 -5 -3 -10 -1 -10 4 0 11 -98 70 -114 70 -5 -1 -12 3 -15 8 -10
15 -72 47 -148 77 -40 16 -73 33 -73 38 0 5 -4 6 -10 3 -5 -3 -10 -1 -10 4 0
6 -7 11 -15 11 -8 0 -15 -8 -15 -18z"/>
<path d="M4550 11862 c0 -5 7 -15 15 -22 8 -7 15 -20 15 -29 0 -17 45 -71 59
-71 5 0 11 -8 15 -17 11 -33 47 -88 71 -109 13 -12 22 -24 20 -26 -3 -2 9 -19
25 -37 17 -18 30 -36 30 -41 0 -5 10 -17 23 -27 13 -10 24 -20 24 -23 6 -25
24 -60 32 -60 5 0 18 -17 28 -37 11 -21 29 -42 41 -48 14 -6 20 -16 17 -26 -4
-10 6 -28 25 -45 16 -16 30 -33 30 -37 0 -12 81 -117 91 -117 5 0 9 -6 9 -13
0 -7 13 -28 28 -47 16 -19 36 -52 46 -72 12 -27 23 -38 38 -38 15 0 19 -3 12
-10 -8 -8 -1 -22 23 -47 18 -20 33 -42 33 -49 0 -6 14 -26 30 -44 17 -18 30
-36 30 -41 0 -5 9 -14 20 -21 11 -7 20 -17 20 -22 0 -5 12 -25 27 -45 16 -20
27 -41 25 -47 -1 -7 11 -25 28 -40 17 -16 45 -51 62 -78 16 -28 40 -58 53 -68
12 -9 30 -33 39 -53 9 -19 21 -35 26 -35 6 0 10 -6 10 -14 0 -8 16 -31 35 -52
19 -20 35 -41 35 -46 0 -21 67 -107 83 -107 12 -1 17 -7 15 -18 -2 -9 9 -31
24 -47 16 -17 28 -36 28 -43 0 -6 15 -28 34 -47 18 -20 31 -36 27 -36 -3 0 5
-7 17 -16 12 -8 22 -22 22 -31 0 -22 39 -73 56 -73 8 0 13 -4 10 -9 -9 -13 17
-60 37 -67 9 -3 17 -11 17 -18 0 -6 13 -27 30 -46 16 -19 29 -40 30 -45 0 -6
16 -29 35 -50 57 -64 60 -69 78 -108 10 -20 25 -41 35 -46 9 -6 14 -11 9 -11
-4 0 11 -24 34 -52 23 -29 45 -63 50 -75 5 -13 15 -23 24 -23 8 0 15 -8 15
-18 0 -9 8 -22 18 -29 11 -6 27 -27 36 -47 9 -20 24 -36 33 -36 10 0 14 -6 10
-20 -3 -13 0 -20 9 -20 8 0 14 -6 14 -13 0 -7 9 -18 20 -25 11 -7 20 -21 20
-31 0 -10 13 -33 30 -51 31 -33 43 -67 23 -63 -7 2 -24 -15 -38 -38 -14 -22
-32 -42 -40 -46 -8 -3 -15 -10 -15 -16 0 -5 -9 -19 -20 -31 -36 -37 -121 -146
-114 -146 4 0 -5 -9 -20 -21 -14 -11 -26 -29 -26 -39 0 -10 -9 -20 -21 -23
-11 -3 -23 -15 -26 -26 -3 -11 -16 -27 -29 -36 -13 -8 -24 -23 -24 -31 0 -9
-11 -25 -25 -36 -14 -11 -25 -26 -25 -33 0 -8 -10 -21 -21 -29 -24 -16 -96
-111 -105 -137 -3 -9 -17 -22 -31 -28 -13 -6 -23 -16 -21 -22 2 -5 -20 -35
-48 -66 -29 -31 -50 -62 -47 -70 3 -7 -1 -13 -10 -13 -18 0 -77 -71 -77 -93 0
-9 -11 -24 -25 -35 -13 -11 -22 -22 -19 -25 3 -3 -8 -13 -25 -23 -17 -10 -31
-26 -31 -35 0 -8 -21 -37 -47 -64 -27 -27 -47 -52 -46 -56 2 -4 -23 -35 -55
-68 -68 -73 -122 -146 -122 -166 0 -8 -6 -15 -13 -15 -8 0 -22 -9 -32 -20 -10
-11 -15 -20 -10 -20 4 0 -4 -9 -19 -21 -14 -11 -26 -27 -26 -35 0 -8 -20 -36
-45 -62 -25 -26 -43 -53 -40 -59 2 -7 -2 -13 -10 -13 -8 0 -21 -12 -29 -28 -8
-15 -23 -36 -35 -46 -12 -11 -21 -25 -21 -33 0 -7 -7 -13 -15 -13 -8 0 -21
-12 -29 -28 -8 -15 -23 -36 -35 -46 -12 -11 -21 -25 -21 -33 0 -7 -7 -13 -15
-13 -8 0 -20 -10 -26 -22 -7 -13 -32 -46 -55 -74 -24 -28 -41 -54 -37 -57 3
-4 -6 -16 -20 -28 -15 -11 -27 -25 -27 -31 0 -5 -11 -19 -25 -30 -14 -11 -25
-26 -25 -33 0 -8 -11 -22 -25 -31 -14 -9 -25 -21 -25 -26 0 -6 -11 -19 -25
-30 -14 -11 -25 -26 -25 -33 0 -7 -12 -23 -26 -34 -15 -12 -23 -21 -18 -21 5
0 -2 -7 -14 -16 -13 -9 -22 -23 -20 -32 2 -10 -5 -21 -16 -27 -10 -5 -24 -19
-30 -30 -6 -10 -21 -28 -34 -38 -13 -11 -21 -25 -18 -32 2 -7 -3 -15 -13 -18
-14 -3 -81 -87 -81 -101 0 -1 -20 -24 -45 -50 -25 -27 -45 -55 -45 -62 0 -7
-11 -21 -25 -32 -14 -11 -25 -24 -25 -30 0 -5 -11 -17 -25 -26 -14 -9 -25 -22
-25 -30 0 -7 -23 -37 -51 -66 -27 -29 -48 -55 -45 -57 3 -3 -6 -14 -19 -25
-14 -11 -25 -26 -25 -34 0 -8 -14 -23 -30 -32 -17 -9 -28 -23 -25 -29 2 -7 -5
-17 -16 -23 -11 -6 -17 -15 -13 -21 3 -5 -6 -19 -20 -30 -14 -11 -26 -25 -26
-31 0 -5 -11 -19 -25 -30 -14 -11 -25 -24 -25 -30 0 -5 -11 -19 -25 -30 -14
-11 -25 -24 -25 -29 0 -10 -33 -51 -71 -88 -15 -14 -38 -45 -53 -68 -14 -24
-35 -48 -45 -55 -12 -7 -16 -18 -13 -31 4 -16 2 -19 -11 -14 -13 5 -21 -2 -31
-28 -8 -18 -24 -38 -35 -45 -12 -6 -21 -19 -21 -29 0 -10 -11 -23 -25 -29 -14
-6 -25 -16 -25 -22 0 -6 -18 -33 -40 -59 -22 -26 -40 -52 -40 -58 0 -6 -11
-18 -25 -27 -14 -9 -25 -23 -25 -30 0 -8 -11 -21 -25 -30 -14 -9 -25 -23 -25
-31 0 -7 -12 -23 -27 -34 -14 -12 -23 -24 -20 -28 4 -3 -7 -14 -23 -24 -17
-11 -30 -25 -30 -32 0 -8 -9 -22 -20 -32 -11 -10 -20 -24 -20 -32 0 -7 -11
-18 -25 -23 -25 -9 -35 -30 -14 -30 6 0 -3 -12 -20 -26 -17 -14 -31 -31 -31
-38 0 -7 -11 -19 -25 -26 -14 -8 -24 -18 -23 -22 2 -5 -18 -32 -44 -61 -27
-28 -48 -55 -48 -59 0 -4 -20 -28 -45 -54 -25 -25 -45 -52 -45 -59 0 -7 -23
-35 -51 -64 -27 -28 -48 -55 -45 -60 4 -5 -17 -33 -46 -63 -29 -29 -51 -57
-50 -61 1 -5 -6 -16 -17 -25 -33 -28 -121 -135 -116 -140 2 -3 -7 -13 -20 -24
-14 -11 -25 -25 -25 -32 0 -7 -14 -22 -31 -35 -17 -13 -28 -25 -25 -28 3 -3
-6 -14 -19 -25 -14 -11 -25 -28 -25 -39 0 -10 -6 -19 -13 -19 -7 0 -21 -16
-30 -35 -9 -20 -23 -38 -31 -41 -8 -3 -12 -12 -9 -20 3 -8 -1 -14 -11 -14 -14
0 -53 -49 -81 -101 -5 -11 -15 -19 -22 -19 -12 0 -30 -26 -31 -43 -1 -5 -12
-17 -26 -28 -15 -11 -26 -27 -26 -35 0 -8 -4 -14 -9 -14 -12 0 -114 -129 -129
-162 -6 -16 -19 -28 -27 -28 -9 0 -15 -7 -13 -15 2 -9 -8 -21 -22 -28 -14 -7
-26 -22 -28 -35 -2 -12 -15 -31 -29 -42 -14 -11 -22 -20 -19 -20 4 0 -6 -12
-23 -26 -17 -14 -31 -31 -31 -37 0 -7 -19 -32 -42 -57 -23 -25 -41 -49 -40
-53 2 -5 -9 -18 -23 -29 -14 -11 -25 -25 -25 -31 0 -7 -9 -18 -20 -25 -11 -7
-20 -21 -20 -32 0 -11 -6 -20 -14 -20 -17 0 -86 -83 -86 -105 0 -9 -13 -24
-29 -33 -17 -9 -32 -24 -36 -32 -11 -29 -33 -62 -72 -105 -23 -26 -36 -48 -31
-53 9 -9 49 23 146 121 32 31 61 57 65 57 14 0 77 54 77 66 0 15 44 54 61 54
17 0 79 60 79 76 0 15 34 44 51 44 18 0 76 58 93 92 6 13 21 24 33 26 12 2 47
30 77 63 30 32 58 59 61 59 13 0 105 86 105 98 0 7 8 16 18 19 29 11 99 74
111 99 6 13 17 24 25 24 7 0 43 28 79 62 36 35 100 95 142 133 42 39 102 95
134 125 31 30 74 66 94 80 20 14 37 30 37 36 0 15 32 42 72 62 18 10 45 36 61
60 16 23 36 42 46 42 19 0 77 56 95 92 6 12 20 24 31 26 25 5 94 70 106 100 5
12 17 22 27 22 10 0 27 10 38 23 23 27 279 349 1824 2297 657 828 1418 1787
1692 2133 274 345 498 632 498 637 0 6 -336 477 -747 1047 -1058 1472 -1045
1453 -1052 1453 -9 0 -1048 178 -1083 186 -16 3 -28 1 -28 -4z"/>
<path d="M8560 7179 c-135 -38 -456 -128 -715 -200 l-470 -131 -45 -49 c-25
-27 -50 -49 -57 -49 -6 0 -33 -25 -60 -56 -26 -31 -62 -62 -80 -69 -18 -8 -48
-36 -68 -64 -20 -28 -45 -51 -54 -51 -19 0 -95 -75 -104 -102 -4 -10 -15 -18
-25 -18 -20 0 -112 -91 -112 -110 0 -5 -8 -10 -17 -10 -21 -1 -82 -54 -108
-92 -9 -16 -22 -28 -27 -28 -15 0 -78 -54 -78 -67 0 -7 5 -13 10 -13 6 0 10 4
10 9 0 5 19 8 42 7 25 0 43 4 46 12 2 7 13 10 27 6 12 -3 26 -1 30 5 3 6 11 9
16 5 6 -3 16 1 22 9 11 14 89 36 180 52 20 3 37 9 37 13 0 4 14 8 32 8 17 1
36 8 42 16 9 12 15 13 29 4 13 -8 19 -8 25 1 4 6 14 11 22 11 40 -3 60 3 60
17 0 8 8 15 18 15 29 0 195 41 225 56 16 8 33 12 38 8 5 -3 14 -2 20 2 7 4 28
8 47 9 20 1 38 7 40 14 2 6 12 11 22 11 10 0 31 7 47 15 15 8 65 22 111 31 45
10 82 22 82 26 0 5 4 7 9 3 14 -8 104 14 116 28 6 7 27 13 49 13 21 1 41 6 45
11 6 10 41 20 161 47 135 30 127 30 161 -3 17 -17 27 -31 23 -31 -4 0 3 -8 14
-19 12 -10 22 -23 22 -30 0 -6 9 -16 20 -23 11 -7 20 -18 20 -25 0 -6 9 -18
20 -26 12 -8 18 -20 15 -30 -4 -10 1 -17 14 -22 12 -3 21 -11 21 -17 0 -5 14
-27 30 -48 17 -21 30 -41 30 -44 0 -4 18 -25 40 -48 22 -23 42 -50 46 -60 3
-10 10 -18 15 -18 5 0 9 -7 9 -15 0 -8 9 -19 20 -25 11 -6 20 -17 20 -24 0 -8
6 -16 14 -19 7 -3 22 -23 33 -44 45 -84 59 -103 77 -103 11 0 16 -5 13 -13 -3
-8 11 -32 32 -54 20 -23 35 -46 33 -52 -2 -6 8 -15 23 -21 14 -5 24 -14 20
-19 -3 -5 6 -22 20 -37 25 -27 43 -56 64 -101 5 -12 19 -24 30 -28 11 -3 18
-12 15 -20 -3 -7 3 -16 15 -20 12 -3 21 -15 21 -25 0 -10 10 -26 23 -35 12 -8
20 -19 18 -23 -2 -4 5 -12 16 -17 11 -6 18 -16 15 -23 -2 -7 2 -19 10 -25 18
-15 83 -99 83 -107 0 -4 15 -21 33 -39 17 -18 32 -37 32 -42 0 -5 752 -9 1916
-9 1797 0 1915 1 1912 17 -2 13 -23 21 -83 32 -44 8 -83 19 -86 24 -4 6 -14 7
-23 4 -9 -4 -16 -2 -16 3 0 6 -10 10 -23 10 -13 0 -28 5 -35 12 -8 8 -15 8
-27 -2 -12 -10 -15 -10 -15 4 0 15 -28 21 -80 18 -8 0 -17 3 -20 7 -3 4 -27
13 -55 18 -141 30 -171 38 -176 47 -4 5 -14 6 -22 3 -9 -3 -18 1 -21 9 -3 9
-14 14 -23 13 -10 -1 -26 2 -37 6 -12 5 -21 3 -27 -6 -7 -11 -9 -10 -9 5 0 14
-5 17 -24 12 -14 -3 -28 -1 -32 5 -3 6 -15 9 -25 6 -11 -3 -19 -2 -19 3 0 4
-17 11 -37 14 -88 15 -179 42 -186 54 -6 9 -18 11 -33 8 -13 -4 -24 -2 -24 3
0 10 -118 33 -131 25 -5 -3 -9 0 -9 5 0 6 -9 11 -20 11 -43 0 -246 54 -256 68
-7 10 -18 13 -29 8 -11 -4 -22 -2 -26 5 -4 7 -28 12 -53 13 -25 1 -46 5 -46
10 0 4 -9 6 -20 3 -11 -3 -20 -2 -20 3 0 4 -22 10 -49 14 -42 6 -54 13 -80 45
-17 21 -31 44 -31 50 0 5 -9 15 -20 21 -11 6 -18 15 -15 21 4 5 1 9 -5 9 -6 0
-16 14 -21 30 -6 17 -17 30 -25 30 -8 0 -14 9 -14 19 0 10 -13 33 -29 50 -17
18 -30 34 -30 37 0 3 -19 31 -43 64 l-43 59 -667 0 -666 1 -433 585 c-259 350
-439 585 -448 584 -9 0 -126 -31 -261 -70z"/>
</g>
</svg>
